<?xml version="1.0" encoding="UTF-8" standalone="no"?>
<svg
   xmlns:dc="http://purl.org/dc/elements/1.1/"
   xmlns:cc="http://creativecommons.org/ns#"
   xmlns:rdf="http://www.w3.org/1999/02/22-rdf-syntax-ns#"
   xmlns:svg="http://www.w3.org/2000/svg"
   xmlns="http://www.w3.org/2000/svg"
   xmlns:sodipodi="http://sodipodi.sourceforge.net/DTD/sodipodi-0.dtd"
   xmlns:inkscape="http://www.inkscape.org/namespaces/inkscape"
   id="Ebene_1"
   data-name="Ebene 1"
   viewBox="0 0 650 150"
   version="1.1"
   sodipodi:docname="WNB Logo mit Text_breit_ohne Hintergrund.svg"
   inkscape:version="0.92.5 (2060ec1f9f, 2020-04-08)"
   inkscape:export-filename="C:\Users\witoh\Documents\00 CLOUD-ABLEGER\01 PRIVAT\02 ENGAGEMENT\1 VERKEHRSWENDE\11 Wiesbaden neu bewegen eV\12 VEREINS-ORGA\Logo\Logo Wiesbaden neu bewegen\WNB Logo mit Text_breit_ohne Hintergrund_150x550.png"
   inkscape:export-xdpi="300"
   inkscape:export-ydpi="300"
   width="650"
   height="150">
  <metadata
     id="metadata915">
    <rdf:RDF>
      <cc:Work
         rdf:about="">
        <dc:format>image/svg+xml</dc:format>
        <dc:type
           rdf:resource="http://purl.org/dc/dcmitype/StillImage" />
        <dc:title></dc:title>
      </cc:Work>
    </rdf:RDF>
  </metadata>
  <defs
     id="defs913" />
  <sodipodi:namedview
     pagecolor="#ffffff"
     bordercolor="#666666"
     borderopacity="1"
     objecttolerance="10"
     gridtolerance="10"
     guidetolerance="10"
     inkscape:pageopacity="0"
     inkscape:pageshadow="2"
     inkscape:window-width="1920"
     inkscape:window-height="986"
     id="namedview911"
     showgrid="false"
     inkscape:zoom="1.0790449"
     inkscape:cx="362.08735"
     inkscape:cy="39.303728"
     inkscape:window-x="-11"
     inkscape:window-y="-11"
     inkscape:window-maximized="1"
     inkscape:current-layer="layer4" />
  <g
     inkscape:groupmode="layer"
     id="layer4"
     inkscape:label="Name groß-klein als Text"
     style="display:inline"
     transform="translate(0,-850)">
    <text
       xml:space="preserve"
       style="font-style:normal;font-weight:normal;font-size:63.92774582px;line-height:1.25;font-family:sans-serif;letter-spacing:0px;word-spacing:0px;fill:#004870;fill-opacity:1;stroke:none;stroke-width:1.59819365"
       x="173.8493"
       y="918.08643"
       id="text1574"><tspan
         sodipodi:role="line"
         id="tspan1572"
         x="173.8493"
         y="918.08643"
         style="font-style:normal;font-variant:normal;font-weight:600;font-stretch:normal;font-family:'Source Sans Pro';-inkscape-font-specification:'Source Sans Pro Semi-Bold';fill:#004870;fill-opacity:1;stroke-width:1.59819365">Wiesbaden</tspan></text>
    <text
       xml:space="preserve"
       style="font-style:normal;font-weight:normal;font-size:64.03479004px;line-height:1.25;font-family:sans-serif;letter-spacing:0px;word-spacing:0px;fill:#004870;fill-opacity:1;stroke:none;stroke-width:1.60086977"
       x="170.32547"
       y="976.40601"
       id="text1578"><tspan
         sodipodi:role="line"
         id="tspan1576"
         x="170.32547"
         y="976.40601"
         style="font-style:normal;font-variant:normal;font-weight:600;font-stretch:normal;font-family:'Source Sans Pro';-inkscape-font-specification:'Source Sans Pro Semi-Bold';letter-spacing:-0.05230451px;fill:#004870;fill-opacity:1;stroke-width:1.60086977">neu bewegen e.V.</tspan></text>
  </g>
  <g
     inkscape:groupmode="layer"
     id="layer3"
     inkscape:label="Logo"
     transform="translate(0,-850)"
     sodipodi:insensitive="true">
    <circle
       style="fill:#004870;stroke:none;stroke-width:0.56390977;stroke-miterlimit:4;stroke-dasharray:none;stroke-opacity:1"
       cx="75"
       cy="925"
       id="circle904"
       r="75" />
    <path
       style="fill:#ffffff;stroke-width:0.28195488"
       d="M 75.000003,993.79705 A 68.768798,68.768798 0 1 1 123.63722,973.6654 68.458647,68.458647 0 0 1 75.000003,993.79705 Z m 0,-133.0827 c -35.44173,0 -64.285716,28.84395 -64.285716,64.28565 0,35.4417 28.843986,64.28565 64.285716,64.28565 35.441727,0 64.285727,-28.84395 64.285727,-64.28565 0,-35.4417 -28.844,-64.28565 -64.285727,-64.28565 z"
       id="path906"
       inkscape:connector-curvature="0" />
    <path
       style="fill:#ffffff;stroke-width:0.28195488"
       d="m 120.59211,897.2557 a 1.6071429,1.6071429 0 0 0 -0.19737,-0.6204 1.6353384,1.6353384 0 0 0 -2.22744,-0.70485 L 87.800754,911.8609 a 1.6353384,1.6353384 0 0 0 -0.817668,1.01505 1.6635339,1.6635339 0 0 0 1.156014,2.0583 l 11.8985,3.186 -11.588349,20.04705 -8.458646,-14.6334 a 6.3721805,6.3721805 0 0 0 -11.080827,0 l -8.458647,14.6334 -16.296993,-28.2519 a 3.806391,3.806391 0 0 0 -5.18797,-1.3815 l -4.539473,2.62215 a 3.806391,3.806391 0 0 0 -1.381579,5.1879 l 21.851503,37.8384 a 6.400376,6.400376 0 0 0 11.109023,0 l 8.458647,-14.60535 8.430451,14.60535 a 6.400376,6.400376 0 0 0 11.10902,0 l 17.34023,-30.0282 9.50188,8.62785 a 1.6917292,1.6917292 0 0 0 1.26879,0.42285 1.6635339,1.6635339 0 0 0 1.49437,-1.8045 z"
       id="path908"
       inkscape:connector-curvature="0" />
  </g>
</svg>
