<?xml version="1.0" encoding="UTF-8" standalone="no"?>
<svg
   xmlns:dc="http://purl.org/dc/elements/1.1/"
   xmlns:cc="http://creativecommons.org/ns#"
   xmlns:rdf="http://www.w3.org/1999/02/22-rdf-syntax-ns#"
   xmlns:svg="http://www.w3.org/2000/svg"
   xmlns="http://www.w3.org/2000/svg"
   xmlns:sodipodi="http://sodipodi.sourceforge.net/DTD/sodipodi-0.dtd"
   xmlns:inkscape="http://www.inkscape.org/namespaces/inkscape"
   id="Ebene_1"
   data-name="Ebene 1"
   viewBox="0 0 1000 1000"
   version="1.1"
   sodipodi:docname="WNB Logo ohne Text_rund ohne Rahmen.svg"
   inkscape:version="0.92.1 r15371"
   inkscape:export-filename="C:\Users\witoh\Documents\00 CLOUD-ABLEGER\01 PRIVAT\02 ENGAGEMENT\1 VERKEHRSWENDE\11 Wiesbaden neu bewegen eV\12 VEREINS-ORGA\Logo\Logo Wiesbaden neu bewegen\WNB Logo ohne Text_rund ohne Rahmen_1000x1000.png"
   inkscape:export-xdpi="300"
   inkscape:export-ydpi="300">
  <metadata
     id="metadata915">
    <rdf:RDF>
      <cc:Work
         rdf:about="">
        <dc:format>image/svg+xml</dc:format>
        <dc:type
           rdf:resource="http://purl.org/dc/dcmitype/StillImage" />
        <dc:title />
      </cc:Work>
    </rdf:RDF>
  </metadata>
  <defs
     id="defs913" />
  <sodipodi:namedview
     pagecolor="#ffffff"
     bordercolor="#666666"
     borderopacity="1"
     objecttolerance="10"
     gridtolerance="10"
     guidetolerance="10"
     inkscape:pageopacity="0"
     inkscape:pageshadow="2"
     inkscape:window-width="1366"
     inkscape:window-height="705"
     id="namedview911"
     showgrid="false"
     inkscape:zoom="0.26038815"
     inkscape:cx="616.21179"
     inkscape:cy="293.28982"
     inkscape:window-x="-8"
     inkscape:window-y="-8"
     inkscape:window-maximized="1"
     inkscape:current-layer="layer3" />
  <g
     inkscape:groupmode="layer"
     id="layer3"
     inkscape:label="Logo"
     style="display:inline">
    <circle
       style="fill:#004870;stroke-width:1.87969923"
       cx="500"
       cy="500"
       r="500"
       id="circle904" />
    <path
       style="fill:#ffffff;stroke-width:1.87969923"
       d="M 499.99998,958.64658 A 458.45864,458.45864 0 1 1 824.24809,824.43606 456.39098,456.39098 0 0 1 499.99998,958.64658 Z m 0,-887.218047 c -236.27819,0 -428.57144,192.293227 -428.57144,428.571427 0,236.2782 192.29325,428.57143 428.57144,428.57143 236.2782,0 428.57142,-192.29323 428.57142,-428.57143 0,-236.2782 -192.29322,-428.571427 -428.57142,-428.571427 z"
       id="path906"
       inkscape:connector-curvature="0" />
    <path
       style="fill:#ffffff;stroke-width:1.87969923"
       d="m 803.94734,315.03756 a 10.714286,10.714286 0 0 0 -1.31578,-4.13535 10.902256,10.902256 0 0 0 -14.84963,-4.69923 l -202.44361,106.203 a 10.902256,10.902256 0 0 0 -5.45112,6.76691 11.090226,11.090226 0 0 0 7.70676,13.7218 l 79.32331,21.2406 -77.25565,133.64663 -56.39096,-97.5564 a 42.481202,42.481202 0 0 0 -73.87219,0 l -56.39098,97.5564 -108.64661,-188.34586 a 25.37594,25.37594 0 0 0 -34.58647,-9.21054 l -30.26315,17.48121 a 25.37594,25.37594 0 0 0 -9.21053,34.58647 l 145.67669,252.25564 a 42.669173,42.669173 0 0 0 74.06016,0 l 56.39096,-97.36843 56.20302,97.36843 a 42.669173,42.669173 0 0 0 74.06015,0 l 115.6015,-200.18797 63.34587,57.5188 a 11.278196,11.278196 0 0 0 8.45864,2.81954 11.090226,11.090226 0 0 0 9.96241,-12.03008 z"
       id="path908"
       inkscape:connector-curvature="0" />
  </g>
</svg>
